<svg xmlns="http://www.w3.org/2000/svg" width="1600" height="900" viewBox="0 0 1600 900" role="img" aria-labelledby="title desc">
  <title id="title">B4 协议用例运行结果</title>
  <desc id="desc">2026年7月15日 qwen-plus prompt_json 模式的十项 B4 协议用例全部通过，左侧为六个真实模型用例耗时，右侧为四个本地解析器用例耗时。</desc>
  <defs>
    <linearGradient id="bg" x1="0" y1="0" x2="1" y2="1"><stop offset="0" stop-color="#f8fafc"/><stop offset="1" stop-color="#fff8f2"/></linearGradient>
    <linearGradient id="bar" x1="0" y1="0" x2="1" y2="0"><stop offset="0" stop-color="#fb923c"/><stop offset="1" stop-color="#c2410c"/></linearGradient>
    <linearGradient id="bar2" x1="0" y1="0" x2="1" y2="0"><stop offset="0" stop-color="#818cf8"/><stop offset="1" stop-color="#4338ca"/></linearGradient>
    <filter id="shadow" x="-20%" y="-20%" width="140%" height="140%"><feDropShadow dx="0" dy="7" stdDeviation="9" flood-color="#172554" flood-opacity=".12"/></filter>
    <style>.t{font-family:'Microsoft YaHei','Noto Sans CJK SC',sans-serif;fill:#172554}.h{font-weight:700}.muted{fill:#65708a}.mono{font-family:Consolas,'SFMono-Regular',monospace}.small{font-size:18px}.body{font-size:21px}</style>
  </defs>
  <rect width="1600" height="900" fill="url(#bg)"/>
  <text class="t h" x="70" y="75" font-size="42">B4 协议用例运行结果</text>
  <text class="t muted" x="70" y="112" font-size="21">run_id: 20260715_142008_141656 · qwen_api / qwen-plus · prompt_json</text>
  <rect x="1230" y="42" width="300" height="88" rx="22" fill="#ecfdf5" stroke="#22c55e" stroke-width="2.5" filter="url(#shadow)"/>
  <text class="t h" x="1380" y="82" font-size="28" fill="#15803d" text-anchor="middle">10 / 10 通过</text>
  <text class="t" x="1380" y="111" font-size="18" fill="#15803d" text-anchor="middle">连续 7 次完整运行均为 10/10</text>

  <rect x="55" y="165" width="965" height="620" rx="26" fill="#fff" stroke="#e2e8f0" stroke-width="2" filter="url(#shadow)"/>
  <text class="t h" x="90" y="215" font-size="27">真实模型用例耗时</text><text class="t muted" x="970" y="215" font-size="18" text-anchor="end">单位：ms；单次观察</text>
  <line x1="310" y1="245" x2="310" y2="735" stroke="#cbd5e1" stroke-width="2"/>
  <line x1="310" y1="735" x2="950" y2="735" stroke="#cbd5e1" stroke-width="2"/>
  <g class="t mono small">
    <text x="290" y="285" text-anchor="end">content_response</text>
    <text x="290" y="365" text-anchor="end">single_tool_call</text>
    <text x="290" y="445" text-anchor="end">multiple_tool_calls</text>
    <text x="290" y="525" text-anchor="end">multiple_tool_messages</text>
    <text x="290" y="605" text-anchor="end">error_tool_message</text>
    <text x="290" y="685" text-anchor="end">stream_response</text>
  </g>
  <g>
    <rect x="310" y="258" width="197" height="38" rx="9" fill="url(#bar)"/><text class="t h small" x="518" y="284">1064.047</text>
    <rect x="310" y="338" width="405" height="38" rx="9" fill="url(#bar)"/><text class="t h small" x="726" y="364">2187.945</text>
    <rect x="310" y="418" width="297" height="38" rx="9" fill="url(#bar)"/><text class="t h small" x="618" y="444">1608.582</text>
    <rect x="310" y="498" width="222" height="38" rx="9" fill="url(#bar)"/><text class="t h small" x="543" y="524">1202.999</text>
    <rect x="310" y="578" width="177" height="38" rx="9" fill="url(#bar)"/><text class="t h small" x="498" y="604">959.218</text>
    <rect x="310" y="658" width="640" height="38" rx="9" fill="url(#bar)"/><text class="t h small" x="935" y="684" fill="#fff" text-anchor="end">3462.468 · 28 deltas</text>
  </g>
  <text class="t muted small" x="310" y="768">平均 1747.543 ms · 范围 959.218–3462.468 ms</text>

  <rect x="1050" y="165" width="495" height="620" rx="26" fill="#fff" stroke="#e2e8f0" stroke-width="2" filter="url(#shadow)"/>
  <text class="t h" x="1085" y="215" font-size="27">本地解析器用例</text><text class="t muted" x="1510" y="215" font-size="18" text-anchor="end">单位：µs</text>
  <g class="t mono small">
    <text x="1085" y="280">content_with_tool_call</text>
    <text x="1085" y="390">normalize_parameters_alias</text>
    <text x="1085" y="500">recover_trailing_markers</text>
    <text x="1085" y="610">reject_empty_message</text>
  </g>
  <g>
    <rect x="1085" y="300" width="343" height="34" rx="9" fill="url(#bar2)"/><text class="t h small" x="1440" y="324">62</text>
    <rect x="1085" y="410" width="194" height="34" rx="9" fill="url(#bar2)"/><text class="t h small" x="1291" y="434">35</text>
    <rect x="1085" y="520" width="360" height="34" rx="9" fill="url(#bar2)"/><text class="t h small" x="1457" y="544">65</text>
    <rect x="1085" y="630" width="133" height="34" rx="9" fill="url(#bar2)"/><text class="t h small" x="1230" y="654">24</text>
  </g>
  <text class="t muted small" x="1085" y="710">平均 46.5 µs</text>
  <text class="t h body" x="1085" y="750" fill="#15803d">4 / 4 通过</text>

  <rect x="55" y="815" width="1490" height="52" rx="16" fill="#fff7ed" stroke="#fdba74"/>
  <text class="t muted" x="800" y="848" font-size="18" text-anchor="middle">说明：模型用例各 1 次，受网络与 API 负载影响；该图用于证明协议链路，不外推模型的普遍性能。</text>
</svg>
